<svg width="53" height="53" viewBox="0 0 53 53" fill="none" xmlns="http://www.w3.org/2000/svg">
<g id="typescript-icon-svgrepo-com 1" clip-path="url(#clip0_212_384)">
<g id="Group">
<path id="Vector" d="M0 26.5V53H26.5H53V26.5V0H26.5H0V26.5Z" fill="#007ACC"/>
<path id="Vector_2" d="M11.7205 26.6757L11.7037 28.8462H15.1529L18.6021 28.8462V38.647V48.4478H21.0418H23.4815V38.647L23.4815 28.8462H26.9307H30.3799V26.7178C30.3799 25.54 30.3546 24.5557 30.321 24.5305C30.2958 24.4968 26.0978 24.48 21.0081 24.4884L11.7458 24.5136L11.7205 26.6757Z" fill="white"/>
<path id="Vector_3" d="M42.7657 24.452C44.1117 24.7885 45.138 25.3858 46.0803 26.3617C46.5682 26.8833 47.2917 27.8339 47.3506 28.0611C47.3674 28.1284 45.0623 29.6763 43.6658 30.5428C43.6153 30.5765 43.4134 30.3578 43.1863 30.0212C42.5049 29.0285 41.7898 28.5995 40.6961 28.5238C39.0893 28.4144 38.0545 29.2557 38.063 30.6606C38.063 31.0728 38.1219 31.3168 38.2901 31.6533C38.6434 32.3852 39.2996 32.8227 41.3607 33.7144C45.1549 35.3465 46.7785 36.4233 47.788 37.9544C48.9153 39.6622 49.1677 42.3879 48.4022 44.4154C47.5609 46.6195 45.4745 48.117 42.5385 48.6133C41.6299 48.7732 39.4763 48.7479 38.5004 48.5712C36.372 48.1927 34.353 47.1411 33.1079 45.7614C32.6199 45.223 31.6693 43.8181 31.7282 43.7171C31.7534 43.6835 31.9722 43.5489 32.2161 43.4059C32.4517 43.2712 33.3434 42.7581 34.1847 42.2701L35.7074 41.3868L36.0271 41.8579C36.473 42.5393 37.4488 43.4732 38.0377 43.7844C39.7287 44.6762 42.0506 44.55 43.1947 43.5236C43.6826 43.0778 43.8845 42.6151 43.8845 41.9336C43.8845 41.3195 43.8088 41.0503 43.4892 40.5876C43.0769 39.9987 42.2357 39.5024 39.8465 38.4676C37.1123 37.2898 35.9346 36.5579 34.8577 35.397C34.2352 34.7239 33.6463 33.6471 33.4023 32.747C33.2004 31.9982 33.1499 30.1222 33.3098 29.3651C33.8734 26.7235 35.8672 24.8811 38.7444 24.3343C39.6782 24.1576 41.8487 24.2249 42.7657 24.452Z" fill="white"/>
</g>
</g>
<defs>
<clipPath id="clip0_212_384">
<rect width="53" height="53" fill="white"/>
</clipPath>
</defs>
</svg>
